<mxfile host="app.diagrams.net" agent="Mozilla/5.0 (X11; Linux x86_64) AppleWebKit/537.36 (KHTML, like Gecko) Chrome/135.0.0.0 Safari/537.36" version="26.2.9">
  <diagram name="Page-1" id="6WaNfKOyfQCuohWohq6m">
    <mxGraphModel dx="1428" dy="791" grid="1" gridSize="10" guides="1" tooltips="1" connect="1" arrows="1" fold="1" page="1" pageScale="1" pageWidth="827" pageHeight="1169" math="0" shadow="0">
      <root>
        <mxCell id="0" />
        <mxCell id="1" parent="0" />
        <mxCell id="95APK0kmfAXDBwjT5X0d-1" value="" style="shape=datastore;whiteSpace=wrap;html=1;" parent="1" vertex="1">
          <mxGeometry x="20" y="340" width="60" height="60" as="geometry" />
        </mxCell>
        <mxCell id="95APK0kmfAXDBwjT5X0d-6" value="" style="swimlane;html=1;startSize=20;fontStyle=0;collapsible=0;horizontal=0;swimlaneLine=0;fillColor=none;whiteSpace=wrap;" parent="1" vertex="1">
          <mxGeometry x="300" y="350" width="160" height="40" as="geometry" />
        </mxCell>
        <mxCell id="95APK0kmfAXDBwjT5X0d-21" value="Model Run 2" style="text;html=1;align=center;verticalAlign=middle;whiteSpace=wrap;rounded=0;" parent="95APK0kmfAXDBwjT5X0d-6" vertex="1">
          <mxGeometry x="35" y="5" width="90" height="30" as="geometry" />
        </mxCell>
        <mxCell id="95APK0kmfAXDBwjT5X0d-7" value="" style="swimlane;html=1;startSize=20;fontStyle=0;collapsible=0;horizontal=0;swimlaneLine=0;fillColor=none;whiteSpace=wrap;" parent="1" vertex="1">
          <mxGeometry x="300" y="400" width="160" height="40" as="geometry" />
        </mxCell>
        <mxCell id="95APK0kmfAXDBwjT5X0d-22" value="Model Run 3" style="text;html=1;align=center;verticalAlign=middle;whiteSpace=wrap;rounded=0;" parent="95APK0kmfAXDBwjT5X0d-7" vertex="1">
          <mxGeometry x="35" y="5" width="90" height="30" as="geometry" />
        </mxCell>
        <mxCell id="95APK0kmfAXDBwjT5X0d-8" value="" style="swimlane;html=1;startSize=20;fontStyle=0;collapsible=0;horizontal=0;swimlaneLine=0;fillColor=none;whiteSpace=wrap;" parent="1" vertex="1">
          <mxGeometry x="300" y="300" width="160" height="40" as="geometry" />
        </mxCell>
        <mxCell id="95APK0kmfAXDBwjT5X0d-20" value="Model Run 1" style="text;html=1;align=center;verticalAlign=middle;whiteSpace=wrap;rounded=0;" parent="95APK0kmfAXDBwjT5X0d-8" vertex="1">
          <mxGeometry x="35" y="5" width="90" height="30" as="geometry" />
        </mxCell>
        <mxCell id="95APK0kmfAXDBwjT5X0d-11" value="" style="triangle;whiteSpace=wrap;html=1;" parent="1" vertex="1">
          <mxGeometry x="610" y="300" width="70" height="140" as="geometry" />
        </mxCell>
        <mxCell id="95APK0kmfAXDBwjT5X0d-12" value="" style="ellipse;whiteSpace=wrap;html=1;aspect=fixed;" parent="1" vertex="1">
          <mxGeometry x="510" y="300" width="40" height="40" as="geometry" />
        </mxCell>
        <mxCell id="95APK0kmfAXDBwjT5X0d-13" value="" style="ellipse;whiteSpace=wrap;html=1;aspect=fixed;" parent="1" vertex="1">
          <mxGeometry x="510" y="350" width="40" height="40" as="geometry" />
        </mxCell>
        <mxCell id="95APK0kmfAXDBwjT5X0d-14" value="" style="ellipse;whiteSpace=wrap;html=1;aspect=fixed;" parent="1" vertex="1">
          <mxGeometry x="510" y="400" width="40" height="40" as="geometry" />
        </mxCell>
        <mxCell id="95APK0kmfAXDBwjT5X0d-15" value="Prediction" style="text;html=1;align=center;verticalAlign=middle;whiteSpace=wrap;rounded=0;" parent="1" vertex="1">
          <mxGeometry x="750" y="355" width="70" height="30" as="geometry" />
        </mxCell>
        <mxCell id="95APK0kmfAXDBwjT5X0d-16" value="&lt;div&gt;Aggregation&lt;/div&gt;" style="text;html=1;align=center;verticalAlign=middle;whiteSpace=wrap;rounded=0;" parent="1" vertex="1">
          <mxGeometry x="590" y="250" width="90" height="30" as="geometry" />
        </mxCell>
        <mxCell id="95APK0kmfAXDBwjT5X0d-17" value="Post-run Predictions" style="text;html=1;align=center;verticalAlign=middle;whiteSpace=wrap;rounded=0;" parent="1" vertex="1">
          <mxGeometry x="485" y="250" width="90" height="30" as="geometry" />
        </mxCell>
        <mxCell id="95APK0kmfAXDBwjT5X0d-18" value="Model Runs" style="text;html=1;align=center;verticalAlign=middle;whiteSpace=wrap;rounded=0;" parent="1" vertex="1">
          <mxGeometry x="335" y="250" width="90" height="30" as="geometry" />
        </mxCell>
        <mxCell id="95APK0kmfAXDBwjT5X0d-19" value="Dataset" style="text;html=1;align=center;verticalAlign=middle;whiteSpace=wrap;rounded=0;" parent="1" vertex="1">
          <mxGeometry x="5" y="250" width="90" height="30" as="geometry" />
        </mxCell>
        <mxCell id="95APK0kmfAXDBwjT5X0d-23" value="" style="endArrow=none;html=1;rounded=0;entryX=0;entryY=0.5;entryDx=0;entryDy=0;" parent="1" target="0NtKITiq3j2wjPLik6Bq-1" edge="1">
          <mxGeometry width="50" height="50" relative="1" as="geometry">
            <mxPoint x="80" y="370" as="sourcePoint" />
            <mxPoint x="130" y="320" as="targetPoint" />
          </mxGeometry>
        </mxCell>
        <mxCell id="95APK0kmfAXDBwjT5X0d-24" value="" style="endArrow=none;html=1;rounded=0;entryX=0;entryY=0.5;entryDx=0;entryDy=0;exitX=1;exitY=0.5;exitDx=0;exitDy=0;" parent="1" source="95APK0kmfAXDBwjT5X0d-1" target="0NtKITiq3j2wjPLik6Bq-2" edge="1">
          <mxGeometry width="50" height="50" relative="1" as="geometry">
            <mxPoint x="90" y="380" as="sourcePoint" />
            <mxPoint x="170" y="330" as="targetPoint" />
          </mxGeometry>
        </mxCell>
        <mxCell id="95APK0kmfAXDBwjT5X0d-25" value="" style="endArrow=none;html=1;rounded=0;entryX=0;entryY=0.5;entryDx=0;entryDy=0;exitX=1;exitY=0.5;exitDx=0;exitDy=0;" parent="1" source="95APK0kmfAXDBwjT5X0d-1" target="0NtKITiq3j2wjPLik6Bq-3" edge="1">
          <mxGeometry width="50" height="50" relative="1" as="geometry">
            <mxPoint x="90" y="380" as="sourcePoint" />
            <mxPoint x="170" y="380" as="targetPoint" />
          </mxGeometry>
        </mxCell>
        <mxCell id="95APK0kmfAXDBwjT5X0d-26" value="" style="endArrow=none;html=1;rounded=0;entryX=0;entryY=0.5;entryDx=0;entryDy=0;exitX=1;exitY=0.5;exitDx=0;exitDy=0;" parent="1" source="95APK0kmfAXDBwjT5X0d-8" target="95APK0kmfAXDBwjT5X0d-12" edge="1">
          <mxGeometry width="50" height="50" relative="1" as="geometry">
            <mxPoint x="230" y="380" as="sourcePoint" />
            <mxPoint x="310" y="330" as="targetPoint" />
          </mxGeometry>
        </mxCell>
        <mxCell id="95APK0kmfAXDBwjT5X0d-27" value="" style="endArrow=none;html=1;rounded=0;entryX=0;entryY=0.5;entryDx=0;entryDy=0;exitX=1;exitY=0.5;exitDx=0;exitDy=0;" parent="1" edge="1">
          <mxGeometry width="50" height="50" relative="1" as="geometry">
            <mxPoint x="460" y="369.65999999999997" as="sourcePoint" />
            <mxPoint x="510" y="369.65999999999997" as="targetPoint" />
          </mxGeometry>
        </mxCell>
        <mxCell id="95APK0kmfAXDBwjT5X0d-28" value="" style="endArrow=none;html=1;rounded=0;entryX=0;entryY=0.5;entryDx=0;entryDy=0;exitX=1;exitY=0.5;exitDx=0;exitDy=0;" parent="1" edge="1">
          <mxGeometry width="50" height="50" relative="1" as="geometry">
            <mxPoint x="460" y="419.65999999999997" as="sourcePoint" />
            <mxPoint x="510" y="419.65999999999997" as="targetPoint" />
          </mxGeometry>
        </mxCell>
        <mxCell id="95APK0kmfAXDBwjT5X0d-29" value="" style="endArrow=none;html=1;rounded=0;entryX=0.004;entryY=0.853;entryDx=0;entryDy=0;exitX=1;exitY=0.5;exitDx=0;exitDy=0;entryPerimeter=0;" parent="1" target="95APK0kmfAXDBwjT5X0d-11" edge="1">
          <mxGeometry width="50" height="50" relative="1" as="geometry">
            <mxPoint x="550" y="419.65999999999997" as="sourcePoint" />
            <mxPoint x="600" y="419.65999999999997" as="targetPoint" />
          </mxGeometry>
        </mxCell>
        <mxCell id="95APK0kmfAXDBwjT5X0d-30" value="" style="endArrow=none;html=1;rounded=0;entryX=0;entryY=0.5;entryDx=0;entryDy=0;exitX=1;exitY=0.5;exitDx=0;exitDy=0;" parent="1" source="95APK0kmfAXDBwjT5X0d-13" target="95APK0kmfAXDBwjT5X0d-11" edge="1">
          <mxGeometry width="50" height="50" relative="1" as="geometry">
            <mxPoint x="560" y="429.65999999999997" as="sourcePoint" />
            <mxPoint x="620" y="380" as="targetPoint" />
          </mxGeometry>
        </mxCell>
        <mxCell id="95APK0kmfAXDBwjT5X0d-31" value="" style="endArrow=none;html=1;rounded=0;entryX=-0.005;entryY=0.143;entryDx=0;entryDy=0;exitX=1;exitY=0.5;exitDx=0;exitDy=0;entryPerimeter=0;" parent="1" source="95APK0kmfAXDBwjT5X0d-12" target="95APK0kmfAXDBwjT5X0d-11" edge="1">
          <mxGeometry width="50" height="50" relative="1" as="geometry">
            <mxPoint x="560" y="380" as="sourcePoint" />
            <mxPoint x="620" y="380" as="targetPoint" />
          </mxGeometry>
        </mxCell>
        <mxCell id="95APK0kmfAXDBwjT5X0d-32" value="" style="endArrow=classic;html=1;rounded=0;" parent="1" target="95APK0kmfAXDBwjT5X0d-15" edge="1">
          <mxGeometry width="50" height="50" relative="1" as="geometry">
            <mxPoint x="680" y="370" as="sourcePoint" />
            <mxPoint x="730" y="320" as="targetPoint" />
          </mxGeometry>
        </mxCell>
        <mxCell id="0NtKITiq3j2wjPLik6Bq-1" value="" style="ellipse;whiteSpace=wrap;html=1;aspect=fixed;" parent="1" vertex="1">
          <mxGeometry x="205" y="300" width="40" height="40" as="geometry" />
        </mxCell>
        <mxCell id="0NtKITiq3j2wjPLik6Bq-2" value="" style="ellipse;whiteSpace=wrap;html=1;aspect=fixed;" parent="1" vertex="1">
          <mxGeometry x="205" y="350" width="40" height="40" as="geometry" />
        </mxCell>
        <mxCell id="0NtKITiq3j2wjPLik6Bq-3" value="" style="ellipse;whiteSpace=wrap;html=1;aspect=fixed;" parent="1" vertex="1">
          <mxGeometry x="205" y="400" width="40" height="40" as="geometry" />
        </mxCell>
        <mxCell id="0NtKITiq3j2wjPLik6Bq-4" value="Pre-run Ingestion" style="text;html=1;align=center;verticalAlign=middle;whiteSpace=wrap;rounded=0;" parent="1" vertex="1">
          <mxGeometry x="180" y="250" width="90" height="30" as="geometry" />
        </mxCell>
        <mxCell id="0NtKITiq3j2wjPLik6Bq-5" value="" style="endArrow=none;html=1;rounded=0;entryX=0;entryY=0.5;entryDx=0;entryDy=0;exitX=1;exitY=0.5;exitDx=0;exitDy=0;" parent="1" source="0NtKITiq3j2wjPLik6Bq-1" target="95APK0kmfAXDBwjT5X0d-8" edge="1">
          <mxGeometry width="50" height="50" relative="1" as="geometry">
            <mxPoint x="390" y="380" as="sourcePoint" />
            <mxPoint x="440" y="330" as="targetPoint" />
          </mxGeometry>
        </mxCell>
        <mxCell id="0NtKITiq3j2wjPLik6Bq-6" value="" style="endArrow=none;html=1;rounded=0;entryX=0;entryY=0.5;entryDx=0;entryDy=0;exitX=1;exitY=0.5;exitDx=0;exitDy=0;" parent="1" source="0NtKITiq3j2wjPLik6Bq-2" target="95APK0kmfAXDBwjT5X0d-6" edge="1">
          <mxGeometry width="50" height="50" relative="1" as="geometry">
            <mxPoint x="255" y="330" as="sourcePoint" />
            <mxPoint x="310" y="330" as="targetPoint" />
          </mxGeometry>
        </mxCell>
        <mxCell id="0NtKITiq3j2wjPLik6Bq-7" value="" style="endArrow=none;html=1;rounded=0;entryX=0;entryY=0.5;entryDx=0;entryDy=0;exitX=1;exitY=0.5;exitDx=0;exitDy=0;" parent="1" source="0NtKITiq3j2wjPLik6Bq-3" target="95APK0kmfAXDBwjT5X0d-7" edge="1">
          <mxGeometry width="50" height="50" relative="1" as="geometry">
            <mxPoint x="255" y="380" as="sourcePoint" />
            <mxPoint x="310" y="380" as="targetPoint" />
          </mxGeometry>
        </mxCell>
      </root>
    </mxGraphModel>
  </diagram>
</mxfile>
